HIERARCHY
ROOT SimulationBone
{
	OFFSET 0.000000 0.000000 0.000000
	CHANNELS 6 Xposition Yposition Zposition Zrotation Yrotation Xrotation 
	JOINT Hips
	{
		OFFSET 0.000000 0.000000 0.000000
		CHANNELS 6 Xposition Yposition Zposition Zrotation Yrotation Xrotation 
		JOINT LeftUpLeg
		{
			OFFSET 0.103456 1.857832 10.548506
			CHANNELS 3 Zrotation Yrotation Xrotation
			JOINT LeftLeg
			{
				OFFSET 43.499996 -0.000050 0.000004
				CHANNELS 3 Zrotation Yrotation Xrotation
				JOINT LeftFoot
				{
					OFFSET 42.372196 0.000023 -0.000001
					CHANNELS 3 Zrotation Yrotation Xrotation
					JOINT LeftToe
					{
						OFFSET 17.299999 -0.000001 0.000005
						CHANNELS 3 Zrotation Yrotation Xrotation
						End Site
						{
							OFFSET 0.000000 0.000000 0.000000
						}
					}
				}
			}
		}
		JOINT RightUpLeg
		{
			OFFSET 0.103461 1.857838 -10.548502
			CHANNELS 3 Zrotation Yrotation Xrotation
			JOINT RightLeg
			{
				OFFSET 43.500053 -0.000023 0.000017
				CHANNELS 3 Zrotation Yrotation Xrotation
				JOINT RightFoot
				{
					OFFSET 42.372261 -0.000019 0.000013
					CHANNELS 3 Zrotation Yrotation Xrotation
					JOINT RightToe
					{
						OFFSET 17.299999 -0.000002 0.000004
						CHANNELS 3 Zrotation Yrotation Xrotation
						End Site
						{
							OFFSET 0.000000 0.000000 0.000000
						}
					}
				}
			}
		}
		JOINT Spine
		{
			OFFSET 6.901962 -2.603720 0.000005
			CHANNELS 3 Zrotation Yrotation Xrotation
			JOINT Spine1
			{
				OFFSET 12.588104 -0.000017 -0.000004
				CHANNELS 3 Zrotation Yrotation Xrotation
				JOINT Spine2
				{
					OFFSET 12.343203 0.000008 0.000001
					CHANNELS 3 Zrotation Yrotation Xrotation
					JOINT Neck
					{
						OFFSET 25.832893 0.000002 -0.000003
						CHANNELS 3 Zrotation Yrotation Xrotation
						JOINT Head
						{
							OFFSET 11.766610 0.000004 -0.000002
							CHANNELS 3 Zrotation Yrotation Xrotation
							End Site
							{
								OFFSET 0.000000 0.000000 0.000000
							}
						}
					}
					JOINT LeftShoulder
					{
						OFFSET 19.745901 -1.480358 6.000100
						CHANNELS 3 Zrotation Yrotation Xrotation
						JOINT LeftArm
						{
							OFFSET 11.284128 -0.000004 -0.000015
							CHANNELS 3 Zrotation Yrotation Xrotation
							JOINT LeftForeArm
							{
								OFFSET 33.000053 0.000025 0.000029
								CHANNELS 3 Zrotation Yrotation Xrotation
								JOINT LeftHand
								{
									OFFSET 25.200005 0.000009 -0.000002
									CHANNELS 3 Zrotation Yrotation Xrotation
									End Site
									{
										OFFSET 0.000000 0.000000 0.000000
									}
								}
							}
						}
					}
					JOINT RightShoulder
					{
						OFFSET 19.746098 -1.480389 -6.000077
						CHANNELS 3 Zrotation Yrotation Xrotation
						JOINT RightArm
						{
							OFFSET 11.284138 -0.000023 -0.000010
							CHANNELS 3 Zrotation Yrotation Xrotation
							JOINT RightForeArm
							{
								OFFSET 33.000103 0.000022 0.000003
								CHANNELS 3 Zrotation Yrotation Xrotation
								JOINT RightHand
								{
									OFFSET 25.199776 0.000131 0.000429
									CHANNELS 3 Zrotation Yrotation Xrotation
									End Site
									{
										OFFSET 0.000000 0.000000 0.000000
									}
								}
							}
						}
					}
				}
			}
		}
	}
}
MOTION
Frames: 11
Frame Time: 0.033333
188.340612 0.000000 57.359990 0.000000 266.528817 0.000000 1.131571 87.137177 -0.036867 95.361557 1.217727 -174.551653 -162.034941 -1.954607 167.716716 -30.270200 -0.311416 5.599219 90.135971 -4.059762 -1.700105 21.454555 0.003098 -0.000003 158.571311 -6.762299 -176.474876 -17.555564 2.856499 12.264231 67.253581 -11.742130 -7.883498 21.454558 -0.003113 -0.000018 8.072798 0.945142 -1.500560 6.108294 1.967751 -2.949761 5.790445 1.950048 -2.961566 -1.490015 -0.424206 -2.065377 4.546425 1.779863 -2.420816 173.443201 -70.854798 5.466742 -26.339265 49.106861 23.917929 -48.619810 -22.746849 2.224086 10.628001 -17.161417 -3.386204 153.736507 67.677770 -25.954572 8.454096 -55.532348 -53.536556 -26.651072 18.754969 -1.433347 14.800460 -0.075897 -5.109904 
188.141729 0.000000 61.357621 0.000000 266.248451 0.000000 1.189013 87.304428 0.534576 95.990065 3.357903 -172.972894 -165.749567 -6.583402 166.981350 -41.050369 1.650019 7.266688 83.932322 -6.624687 -7.037455 21.454553 0.003095 0.000002 159.732156 -8.672189 -176.144104 -20.910119 3.930033 13.287892 70.971621 -11.885006 -7.145843 21.454560 -0.003115 -0.000019 8.195881 1.597031 -1.519803 6.339295 3.274495 -2.951290 6.021091 3.256761 -2.971015 -1.518233 0.391759 -2.613808 3.853774 1.048761 -2.613444 172.400395 -71.369910 6.523854 -26.046911 51.482558 26.575675 -43.296996 -21.947519 2.004962 12.045646 -16.577738 -6.004321 153.658411 67.477310 -26.047794 6.902713 -54.908502 -51.419754 -26.477198 18.632759 -1.422582 15.133409 0.122340 -4.634464 
187.946887 0.000000 65.364051 0.000000 265.939353 0.000000 1.234916 87.615952 0.986214 96.782194 4.562980 -171.454095 -171.383885 -9.627900 170.196949 -53.677777 3.150880 7.049802 75.575415 -8.465699 -11.299252 21.454545 0.003086 0.000001 161.809190 -10.157004 -174.065732 -23.119712 3.608454 12.837628 74.569048 -11.143221 -6.846936 21.454562 -0.003118 -0.000018 8.403621 1.997345 -1.585236 6.744181 4.083259 -3.053566 6.425699 4.064898 -3.078160 -2.215806 0.768202 -3.071322 4.257364 1.425578 -2.999328 171.691790 -72.003362 7.231175 -25.891854 53.351991 29.540189 -38.134271 -20.494720 1.767214 13.606255 -14.446192 -7.762536 151.972597 67.799449 -27.761838 4.495107 -55.034669 -49.035233 -26.867285 18.991696 -1.452134 14.910233 0.411749 -4.344021 
187.747494 0.000000 69.359766 0.000000 265.595473 0.000000 1.454439 88.356247 1.303542 97.213924 4.709457 -170.566414 -177.992462 -10.744594 173.839516 -64.771401 4.264628 6.363818 65.561702 -10.095732 -13.407544 21.454551 0.003097 0.000001 165.192428 -11.070098 -173.557607 -22.699809 3.271737 12.620753 76.867297 -10.772232 -6.860055 21.454557 -0.003102 -0.000017 8.482588 2.052665 -1.530888 6.903108 4.192597 -2.938783 6.584532 4.174917 -2.964055 -2.009525 0.762323 -3.573179 4.160766 2.399285 -3.656194 171.159391 -71.976957 7.779579 -24.379402 53.659715 34.251613 -34.680839 -18.680224 1.565394 14.872042 -10.402432 -7.730284 149.931900 67.917714 -29.851676 2.543415 -55.088040 -46.545840 -28.510444 19.658545 -1.524470 15.039945 0.460449 -5.664694 
187.535943 0.000000 73.330222 0.000000 265.238327 0.000000 1.390162 88.727097 1.397673 97.758032 5.029750 -170.947780 176.685765 -10.752806 176.432761 -72.848230 4.501375 3.704710 67.014381 -8.576178 -15.074246 21.454550 0.003089 0.000005 168.312103 -12.250506 -176.058617 -22.616022 3.772946 13.489056 79.081665 -11.122985 -6.672996 21.454560 -0.003103 -0.000014 8.594428 2.038347 -1.072805 7.144140 4.138762 -2.019247 6.825352 4.126635 -2.044231 -1.244863 1.169319 -4.244498 4.016103 3.031679 -4.317978 170.350614 -71.906401 8.613735 -22.709144 53.523285 39.131216 -32.283979 -17.679381 1.447883 14.775617 -4.435417 -5.308334 149.330393 67.703185 -30.484654 0.853250 -54.129092 -44.977390 -31.094423 20.233749 -1.612587 14.899955 1.634075 -5.916449 
187.313327 0.000000 77.285570 0.000000 264.868110 0.000000 1.379899 89.126411 1.358336 98.063905 4.737798 -172.091829 171.669619 -9.690405 177.856295 -77.700519 4.132642 0.840054 72.396153 -4.517120 -11.647750 21.454545 0.003084 0.000004 171.597698 -12.633700 -178.092320 -22.373618 4.009678 13.535612 81.212950 -10.960097 -6.652021 21.454558 -0.003101 -0.000015 8.673037 1.873128 -0.592508 7.319601 3.779796 -1.066116 7.000800 3.773420 -1.088950 -0.655104 1.200782 -4.564732 3.916582 3.206019 -4.666776 171.697487 -71.192168 7.253642 -20.299747 53.159591 43.763471 -30.291090 -17.255354 1.379822 14.321207 -1.184990 -3.505569 148.746726 67.721517 -31.082893 -1.419106 -52.958671 -43.220809 -33.931198 20.690825 -1.704220 14.370115 3.692074 -5.622973 
187.070422 0.000000 81.229081 0.000000 264.483442 0.000000 1.285174 89.609688 1.219827 97.990899 4.020862 -173.497569 166.872832 -8.066599 178.277882 -78.646227 4.172331 -2.092133 74.170984 -1.197596 -8.400317 21.454558 0.003095 0.000001 174.964475 -12.181391 -178.308768 -21.455718 3.725125 12.294025 82.865105 -9.997787 -6.825543 21.454555 -0.003119 -0.000018 8.692965 1.594680 -0.204496 7.371636 3.199027 -0.307298 7.053009 3.197247 -0.326615 -0.250921 0.994101 -4.594223 3.658681 3.152399 -4.760838 173.777484 -70.982529 5.118151 -16.964974 53.826218 45.245089 -29.083331 -16.472046 1.306445 14.776061 -2.065605 -3.190581 147.996717 67.999103 -31.833439 -4.115851 -52.091216 -40.780498 -36.879661 21.356608 -1.818365 13.851390 5.130777 -6.327017 
186.814125 0.000000 85.164764 0.000000 264.092174 0.000000 1.066524 89.774353 1.092353 97.784848 3.531557 -174.808353 162.213578 -6.427193 178.774724 -76.849573 4.433299 -4.317201 74.898167 1.347485 -5.364495 21.454550 0.003101 0.000000 177.415981 -11.838698 -178.610826 -21.699752 3.408269 11.302659 84.819926 -9.120632 -6.673485 21.454560 -0.003104 -0.000020 8.693796 1.354423 0.094526 7.380010 2.699975 0.275145 7.061548 2.701732 0.258819 -0.180148 0.533698 -4.512890 3.560572 3.191932 -4.818371 174.504203 -71.083493 4.366257 -12.723361 54.856183 46.972020 -27.643598 -15.903240 1.243833 15.021509 -5.630349 -5.854934 146.765916 68.388642 -33.068248 -6.783103 -51.499227 -38.042111 -39.728263 22.158590 -1.945473 13.349843 6.457771 -7.332354 
186.531241 0.000000 89.084050 0.000000 263.714364 0.000000 0.825522 89.817673 0.979139 97.552089 2.999010 -176.024129 158.601610 -5.138502 179.305170 -71.807828 4.148928 -4.731952 77.683478 2.298702 -3.425254 21.454545 0.003081 0.000000 179.798200 -11.345308 -179.427061 -21.894865 3.248536 10.633532 86.810291 -8.457476 -6.400480 21.454557 -0.003102 -0.000018 8.717123 1.111491 0.331341 7.429802 2.199396 0.733351 7.111484 2.203931 0.720043 -0.634497 0.072178 -4.407243 3.442150 3.482310 -4.890231 174.604101 -71.013962 4.265381 -8.224635 55.373132 49.309192 -26.669058 -15.640952 1.210205 15.392789 -8.451996 -10.150172 145.847475 68.641489 -33.991181 -9.184386 -50.776326 -34.004971 -43.155365 22.325373 -2.053934 12.784364 7.609483 -9.194459 
186.235629 0.000000 92.990659 0.000000 263.357676 0.000000 0.638224 89.406227 0.921193 97.105761 3.247248 -177.020327 155.493997 -4.742402 -179.630683 -64.534960 3.583083 -4.141822 79.489755 1.955867 -3.449510 21.454557 0.003106 -0.000002 -178.474755 -11.538688 179.712167 -22.871980 3.230730 10.176196 89.312564 -7.899478 -6.027593 21.454560 -0.003108 -0.000015 8.694435 1.045337 0.527245 7.387270 2.054892 1.120183 7.069010 2.061762 1.107747 -1.489358 -0.402002 -4.284071 3.806601 3.822465 -4.938422 175.190199 -70.968507 3.662718 -4.302629 55.520245 51.064383 -26.358386 -15.361251 1.187146 15.730435 -8.727134 -10.957515 145.322479 68.679915 -34.526248 -11.303117 -49.757607 -30.637066 -46.467782 22.630401 -2.175818 12.266172 8.315135 -9.915696 
185.928287 0.000000 96.880338 0.000000 263.011047 0.000000 0.546136 88.949074 0.962784 96.600656 3.484019 -177.814232 153.510674 -4.793208 -178.755545 -54.613315 2.259655 -3.498249 79.124777 1.358865 -4.199626 21.454551 0.003094 -0.000003 -176.447200 -11.662014 179.290581 -23.289321 3.134928 9.520551 91.552867 -7.264465 -5.729655 21.454558 -0.003106 -0.000018 8.662208 1.005452 0.641146 7.324195 1.968346 1.344692 7.005989 1.976562 1.332768 -2.287536 -0.983916 -4.127362 4.044764 4.092039 -4.984565 175.983608 -70.951875 2.845327 -1.221622 55.476040 53.186488 -26.205459 -15.158179 1.171648 15.576538 -8.684582 -10.671658 144.361881 68.843533 -35.497719 -13.134553 -49.030708 -27.979774 -49.243926 22.981640 -2.290005 11.649169 9.269007 -10.670881 
